<svg viewBox="0 0 48 48" fill="none" xmlns="http://www.w3.org/2000/svg">
    <g>
        <path
            d="M12 26.4H16.8V21.6H12V26.4ZM12 36H16.8V31.2H12V36ZM12 16.8H16.8V12H12V16.8ZM12 26.4H16.8V21.6H12V26.4ZM12 36H16.8V31.2H12V36ZM12 16.8H16.8V12H12V16.8Z"
            fill="currentColor" />
        <path
            d="M21.6 26.4H26.4V21.6H21.6V26.4ZM21.6 36H26.4V31.2H21.6V36ZM21.6 16.8H26.4V12H21.6V16.8ZM21.6 26.4H26.4V21.6H21.6V26.4ZM21.6 36H26.4V31.2H21.6V36ZM21.6 16.8H26.4V12H21.6V16.8Z"
            fill="currentColor" />
        <path
            d="M31.2 26.4H36V21.6H31.2V26.4ZM31.2 36H36V31.2H31.2V36ZM31.2 16.8H36V12H31.2V16.8ZM31.2 26.4H36V21.6H31.2V26.4ZM31.2 36H36V31.2H31.2V36ZM31.2 16.8H36V12H31.2V16.8Z"
            fill="currentColor" />
    </g>
</svg>