<svg viewBox="0 0 40 40" xmlns="http://www.w3.org/2000/svg">
    <path
        d="M3.33325 14.6665C3.33325 10.2482 6.91497 6.6665 11.3333 6.6665H36.6666V28.6665C36.6666 33.0848 33.0849 36.6665 28.6666 36.6665H3.33325V14.6665Z"
        fill="#CEE5E4" />
    <path fill-rule="evenodd" clip-rule="evenodd"
        d="M22.8556 14.919C23.3607 15.5756 23.2379 16.5174 22.5812 17.0225L11.7479 25.3558C11.0913 25.8609 10.1495 25.7381 9.64439 25.0815C9.13929 24.4248 9.26213 23.4831 9.91876 22.978L20.7521 14.6446C21.4087 14.1395 22.3505 14.2624 22.8556 14.919Z"
        fill="#323338" />
    <rect x="20.8333" y="11.6665" width="5.83333" height="5.83333" fill="#323338" />
    <path fill-rule="evenodd" clip-rule="evenodd"
        d="M10.7127 23.8819C11.1002 24.2755 11.0952 24.9087 10.7016 25.2961C10.5111 25.4837 10.1819 25.7265 9.88751 25.9437C9.87294 25.9544 9.85845 25.9651 9.84407 25.9757L9.82574 25.9892C9.48893 26.2378 9.11654 26.5126 8.76262 26.8018C8.39755 27.1002 8.08878 27.3846 7.87901 27.6359C7.71103 27.8372 7.67397 27.9377 7.66702 27.9503C7.67186 28.2435 7.74009 28.4545 7.83388 28.5997C7.92424 28.7396 8.07575 28.8783 8.36147 28.9733C9.53805 29.3642 10.7074 29.4046 11.4116 28.8562C11.5837 28.7222 11.7091 28.6153 11.8431 28.5011C11.945 28.4142 12.0519 28.323 12.1881 28.2125C12.4365 28.0109 12.7745 27.7538 13.1705 27.6134C13.6288 27.4509 14.1452 27.4508 14.6519 27.7252C15.0972 27.9664 15.4516 28.3762 15.7588 28.8461C15.8188 28.9378 15.8739 29.0247 15.9232 29.1024L15.926 29.1067C15.9753 29.1845 16.0176 29.2511 16.0586 29.3137C16.1424 29.4417 16.2035 29.5256 16.2593 29.5896C16.3417 29.6841 16.4313 29.7606 16.6346 29.8335C16.6419 29.8335 16.6534 29.833 16.6699 29.8312C16.7268 29.8249 16.8107 29.8055 16.9167 29.7655C17.1356 29.683 17.3493 29.5508 17.4743 29.4469C18.0273 28.9875 18.7314 28.4931 19.5428 28.415C20.4807 28.3246 21.2555 28.7987 21.867 29.5858C21.8908 29.6164 21.9994 29.7097 22.3329 29.7722C22.6489 29.8314 22.998 29.8335 23.3334 29.8335C24.2648 29.8335 25.7734 29.632 26.5961 29.28C27.7165 28.8005 28.8728 28.2964 29.6418 27.6843C30.504 26.9979 31.1059 26.1087 31.5418 25.4645C31.588 25.3963 31.6323 25.3309 31.6749 25.2687C31.9868 24.8129 32.6091 24.6963 33.0649 25.0083C33.5206 25.3202 33.6372 25.9425 33.3253 26.3983C33.2876 26.4534 33.2459 26.5154 33.2002 26.5833C32.7752 27.2151 32.0059 28.3587 30.8874 29.249C29.8816 30.0497 28.4797 30.6495 27.4332 31.0972L27.383 31.1187C26.2109 31.6202 24.3987 31.8335 23.3334 31.8335L23.3048 31.8335C22.9911 31.8336 22.4756 31.8338 21.9645 31.738C21.455 31.6425 20.7584 31.4187 20.2877 30.8128C19.9523 30.3812 19.7822 30.4004 19.7387 30.4053C19.7371 30.4055 19.7358 30.4057 19.7345 30.4058C19.5721 30.4214 19.2735 30.5524 18.7523 30.9854C18.4607 31.2275 18.0546 31.4739 17.6224 31.6369C17.2227 31.7876 16.6092 31.9398 16.0068 31.7327C14.9855 31.3817 14.5675 30.7112 14.2246 30.1612C14.177 30.0849 14.1309 30.011 14.0849 29.9406C13.936 29.7128 13.828 29.5941 13.7645 29.5353C13.7007 29.5728 13.601 29.6416 13.4484 29.7654C13.3892 29.8135 13.3057 29.884 13.2101 29.9648C13.036 30.112 12.8216 30.2931 12.6404 30.4342C11.0953 31.6374 9.03734 31.3053 7.73085 30.8712C7.04959 30.6449 6.51139 30.2384 6.1538 29.6847C5.80316 29.1418 5.66675 28.5213 5.66675 27.9168C5.66675 27.2628 6.04536 26.7117 6.34349 26.3545C6.6739 25.9585 7.09669 25.5803 7.4971 25.2531C7.88987 24.9322 8.29654 24.6321 8.6256 24.3893C8.63596 24.3816 8.64623 24.374 8.65643 24.3665C9.02747 24.0927 9.22712 23.9412 9.29853 23.8709C9.6921 23.4834 10.3252 23.4884 10.7127 23.8819Z"
        fill="#323338" />
    <path
        d="M32.1582 22.5694L10.0128 26.6665L9.18456 25.5634L21.8534 15.8494C22.152 16.1274 22.5369 16.2912 22.9419 16.3125C23.3469 16.3339 23.7466 16.2114 24.072 15.9663C24.2697 15.8289 24.4378 15.6524 24.5662 15.4473C24.6945 15.2423 24.7804 15.013 24.8187 14.7733C24.8571 14.5336 24.8469 14.2886 24.789 14.053C24.7311 13.8174 24.6265 13.5961 24.4817 13.4027C24.3369 13.2092 24.1548 13.0475 23.9465 12.9273C23.7381 12.8072 23.5079 12.7311 23.2697 12.7037C23.0315 12.6763 22.7903 12.6981 22.5606 12.7679C22.331 12.8376 22.1177 12.9538 21.9337 13.1095C21.6102 13.3587 21.3829 13.7146 21.2912 14.1157C21.1996 14.5167 21.2493 14.9376 21.4318 15.3055L8.77799 24.9992L8 23.9826L17.9735 2.93793C22.9928 8.89549 29.7639 5.47956 29.7639 5.47956L33.8949 10.9949C27.967 15.5393 32.1582 22.5694 32.1582 22.5694Z"
        fill="#676879" />
    <path d="M34.8879 12.2849L28.6257 3.92676L33.7359 -4.60306e-05L39.9981 8.3581L34.8879 12.2849Z" fill="#096561" />
</svg>